<svg width="16" height="16" viewBox="0 0 16 16" fill="none" xmlns="http://www.w3.org/2000/svg">
<g id="eye-slash">
<g id="vuesax/outline/eye-slash">
<g id="eye-slash_2">
<path id="Vector" d="M7.99995 5.61328C8.27386 5.61328 8.54135 5.65972 8.79276 5.74819C8.54091 5.65936 8.27363 5.61328 7.99995 5.61328ZM7.99995 5.61328C6.68381 5.61328 5.61328 6.68381 5.61328 7.99995M7.99995 5.61328C6.68276 5.61328 5.61328 6.68276 5.61328 7.99995M5.61328 7.99995C5.61328 8.27386 5.65972 8.54135 5.74819 8.79276C5.65936 8.54091 5.61328 8.27363 5.61328 7.99995Z" fill="#161616" stroke="#161616"/>
<path id="Vector_2" d="M2.03499 9.89681C2.46562 10.5429 2.9485 11.1198 3.47768 11.6145C2.94961 11.1264 2.46497 10.551 2.03499 9.89681Z" fill="#161616" stroke="#161616"/>
<path id="Vector_3" d="M7.99832 13.5137C10.3636 13.5123 12.5641 12.0922 14.0696 9.72958C14.3848 9.23762 14.5233 8.6015 14.5233 8.00032C14.5233 7.39948 14.385 6.76374 14.0702 6.27188C13.8533 5.92918 13.6157 5.60062 13.364 5.29284C13.3642 5.29175 13.3645 5.29035 13.3653 5.28883C13.3655 5.28855 13.3657 5.28824 13.3659 5.28791C13.3664 5.28844 13.3672 5.28921 13.368 5.29028L13.755 4.97366M7.99832 13.5137L5.80167 12.5603C6.50834 12.8603 7.24834 13.0137 7.995 13.0137C10.1483 13.0137 12.2083 11.7203 13.6483 9.46032C14.1483 8.68032 14.1483 7.32032 13.6483 6.54032C13.4417 6.21366 13.215 5.90032 12.975 5.60699C12.8017 5.39366 12.835 5.08032 13.0483 4.90032M7.99832 13.5137C7.99943 13.5137 8.00055 13.5137 8.00167 13.5137C10.2929 13.5137 12.5162 12.1694 14.0736 9.73123M7.99832 13.5137L14.0736 9.73123M13.755 4.97366C14.015 5.29366 14.2683 5.64032 14.495 6.00032C15.2017 7.10032 15.2017 8.89366 14.495 10.0003M13.755 4.97366L13.3669 5.28895C13.6161 5.59556 13.8573 5.92594 14.0719 6.26673L14.0719 6.26674L14.0743 6.27057C14.3647 6.72258 14.525 7.3465 14.525 7.99782C14.525 8.64899 14.3648 9.2752 14.0736 9.73117L14.495 10.0003M13.755 4.97366C13.575 4.75366 13.2617 4.72699 13.0483 4.90032M14.495 10.0003L14.0736 9.73123M14.495 10.0003C12.8683 12.547 10.5017 14.0137 8.00167 14.0137C7.115 14.0137 6.24834 13.8337 5.415 13.4803L14.0736 9.73123M13.0483 4.90032L13.3636 5.28838C13.3643 5.28781 13.3649 5.28747 13.3652 5.28729L13.0483 4.90032Z" fill="#161616" stroke="#161616"/>
<path id="Vector_4" d="M10.3376 8.46954L9.8464 8.38023L10.3371 8.47599C10.3372 8.47561 10.3373 8.4753 10.3374 8.47502C10.3374 8.4747 10.3375 8.47445 10.3376 8.47425C10.3376 8.47425 10.3376 8.47424 10.3376 8.47424C10.3381 8.47387 10.3391 8.47334 10.3407 8.473C10.341 8.47292 10.3415 8.47284 10.342 8.47278L10.3414 8.47595C10.1695 9.40531 9.43666 10.1489 8.51886 10.3439C8.51083 10.344 8.5034 10.3441 8.49662 10.3444L10.3375 8.47416C10.3377 8.47315 10.3379 8.47214 10.3381 8.47114M10.3376 8.46954L10.3373 8.47098C10.3376 8.47103 10.3378 8.47108 10.3381 8.47114M10.3376 8.46954L10.3383 8.46967C10.3382 8.47016 10.3382 8.47065 10.3381 8.47114M10.3376 8.46954L10.4331 7.98023L10.349 8.47245L10.3489 8.4731C10.3462 8.47263 10.3442 8.4726 10.3427 8.47271M10.3381 8.47114C10.3406 8.4717 10.3416 8.47238 10.3419 8.4726C10.342 8.47261 10.342 8.47263 10.342 8.47264L10.3423 8.47114L10.3423 8.47114C10.3424 8.47074 10.3424 8.47056 10.3424 8.47056C10.3424 8.47056 10.3424 8.47078 10.3424 8.47117C10.3425 8.47145 10.3425 8.47181 10.3426 8.47224C10.3426 8.47241 10.3427 8.47257 10.3427 8.47271M10.3427 8.47271C10.3425 8.47272 10.3423 8.47274 10.3422 8.47276C10.3427 8.47311 10.3429 8.47345 10.3431 8.47364C10.3431 8.47367 10.3431 8.47368 10.3431 8.47368C10.3431 8.47368 10.3429 8.47337 10.3427 8.47271Z" fill="#161616" stroke="#161616"/>
<g id="Vector_5">
<mask id="path-5-inside-1_416_56810" fill="white">
<path d="M1.33427 15.1668C1.2076 15.1668 1.08094 15.1201 0.980938 15.0201C0.787604 14.8268 0.787604 14.5068 0.980938 14.3135L5.96094 9.33348C6.15427 9.14014 6.47427 9.14014 6.6676 9.33348C6.86094 9.52681 6.86094 9.84681 6.6676 10.0401L1.6876 15.0201C1.5876 15.1201 1.46094 15.1668 1.33427 15.1668Z"/>
</mask>
<path d="M1.33427 15.1668C1.2076 15.1668 1.08094 15.1201 0.980938 15.0201C0.787604 14.8268 0.787604 14.5068 0.980938 14.3135L5.96094 9.33348C6.15427 9.14014 6.47427 9.14014 6.6676 9.33348C6.86094 9.52681 6.86094 9.84681 6.6676 10.0401L1.6876 15.0201C1.5876 15.1201 1.46094 15.1668 1.33427 15.1668Z" fill="#161616"/>
<path d="M6.6676 10.0401L7.37471 10.7473L6.6676 10.0401ZM1.6876 15.0201L0.980497 14.313H0.980497L1.6876 15.0201ZM1.33427 14.1668C1.45851 14.1668 1.59062 14.2156 1.68804 14.313L0.273831 15.7272C0.571251 16.0247 0.956701 16.1668 1.33427 16.1668V14.1668ZM1.68804 14.313C1.88524 14.5102 1.88524 14.8234 1.68804 15.0206L0.273831 13.6064C-0.310027 14.1902 -0.310027 15.1434 0.273831 15.7272L1.68804 14.313ZM1.68804 15.0206L6.66804 10.0406L5.25383 8.62637L0.273831 13.6064L1.68804 15.0206ZM6.66804 10.0406C6.47085 10.2378 6.15769 10.2378 5.9605 10.0406L7.37471 8.62637C6.79085 8.04251 5.83769 8.04251 5.25383 8.62637L6.66804 10.0406ZM5.9605 10.0406C5.76331 9.84339 5.76331 9.53023 5.9605 9.33304L7.37471 10.7473C7.95857 10.1634 7.95857 9.21023 7.37471 8.62637L5.9605 10.0406ZM5.9605 9.33304L0.980497 14.313L2.39471 15.7272L7.37471 10.7473L5.9605 9.33304ZM0.980497 14.313C1.07792 14.2156 1.21003 14.1668 1.33427 14.1668V16.1668C1.71184 16.1668 2.09729 16.0247 2.39471 15.7272L0.980497 14.313Z" fill="#161616" mask="url(#path-5-inside-1_416_56810)"/>
</g>
<g id="Vector_6">
<mask id="path-7-inside-2_416_56810" fill="white">
<path d="M9.68583 6.81329C9.55917 6.81329 9.4325 6.76663 9.3325 6.66663C9.13917 6.47329 9.13917 6.15329 9.3325 5.95996L14.3125 0.979961C14.5058 0.786628 14.8258 0.786628 15.0192 0.979961C15.2125 1.17329 15.2125 1.49329 15.0192 1.68663L10.0392 6.66663C9.93917 6.76663 9.8125 6.81329 9.68583 6.81329Z"/>
</mask>
<path d="M9.68583 6.81329C9.55917 6.81329 9.4325 6.76663 9.3325 6.66663C9.13917 6.47329 9.13917 6.15329 9.3325 5.95996L14.3125 0.979961C14.5058 0.786628 14.8258 0.786628 15.0192 0.979961C15.2125 1.17329 15.2125 1.49329 15.0192 1.68663L10.0392 6.66663C9.93917 6.76663 9.8125 6.81329 9.68583 6.81329Z" fill="#161616"/>
<path d="M15.0192 1.68663L14.3121 0.979521V0.979521L15.0192 1.68663ZM10.0392 6.66663L10.7463 7.37373L10.0392 6.66663ZM9.68583 5.81329C9.81007 5.81329 9.94219 5.8621 10.0396 5.95952L8.62539 7.37373C8.92281 7.67115 9.30826 7.81329 9.68583 7.81329V5.81329ZM10.0396 5.95952C10.2368 6.15671 10.2368 6.46988 10.0396 6.66707L8.62539 5.25285C8.04154 5.83671 8.04154 6.78988 8.62539 7.37373L10.0396 5.95952ZM10.0396 6.66707L15.0196 1.68707L13.6054 0.272854L8.62539 5.25285L10.0396 6.66707ZM15.0196 1.68707C14.8224 1.88426 14.5093 1.88426 14.3121 1.68707L15.7263 0.272854C15.1424 -0.311003 14.1893 -0.311003 13.6054 0.272854L15.0196 1.68707ZM14.3121 1.68707C14.1149 1.48988 14.1149 1.17671 14.3121 0.979521L15.7263 2.39373C16.3101 1.80988 16.3101 0.856712 15.7263 0.272854L14.3121 1.68707ZM14.3121 0.979521L9.33206 5.95952L10.7463 7.37373L15.7263 2.39373L14.3121 0.979521ZM9.33206 5.95952C9.42948 5.8621 9.56159 5.81329 9.68583 5.81329V7.81329C10.0634 7.81329 10.4489 7.67115 10.7463 7.37373L9.33206 5.95952Z" fill="#161616" mask="url(#path-7-inside-2_416_56810)"/>
</g>
</g>
</g>
</g>
</svg>
