<svg width="16" height="16" viewBox="0 0 16 16" fill="none" xmlns="http://www.w3.org/2000/svg">
<g id="eye">
<path id="Vector" d="M8 10.8867C6.40666 10.8867 5.11333 9.59334 5.11333 8.00001C5.11333 6.40668 6.40666 5.11334 8 5.11334C9.59333 5.11334 10.8867 6.40668 10.8867 8.00001C10.8867 9.59334 9.59333 10.8867 8 10.8867ZM8 6.11334C6.96 6.11334 6.11333 6.96001 6.11333 8.00001C6.11333 9.04001 6.96 9.88668 8 9.88668C9.04 9.88668 9.88666 9.04001 9.88666 8.00001C9.88666 6.96001 9.04 6.11334 8 6.11334Z" fill="#161616"/>
<path id="Vector_2" d="M8.00002 14.0134C5.49335 14.0134 3.12669 12.5467 1.50002 10C0.793353 8.90003 0.793353 7.10669 1.50002 6.00003C3.13335 3.45336 5.50002 1.98669 8.00002 1.98669C10.5 1.98669 12.8667 3.45336 14.4934 6.00003C15.2 7.10003 15.2 8.89336 14.4934 10C12.8667 12.5467 10.5 14.0134 8.00002 14.0134ZM8.00002 2.98669C5.84669 2.98669 3.78669 4.28003 2.34669 6.54003C1.84669 7.32003 1.84669 8.68003 2.34669 9.46003C3.78669 11.72 5.84669 13.0134 8.00002 13.0134C10.1534 13.0134 12.2134 11.72 13.6534 9.46003C14.1534 8.68003 14.1534 7.32003 13.6534 6.54003C12.2134 4.28003 10.1534 2.98669 8.00002 2.98669Z" fill="#161616"/>
</g>
</svg>
