<svg width="127" height="38" viewBox="0 0 127 38" fill="none" xmlns="http://www.w3.org/2000/svg">
<g id="Group 90">
<g id="Group">
<path id="Vector" d="M103.715 0.00439805H9.68669C9.3429 0.00439805 9.00573 0.00439852 8.66414 0.00659792C8.37766 0.00879731 8.09337 0.0131951 7.80468 0.0175939C7.1766 0.0241921 6.55073 0.079177 5.93148 0.182549C5.31222 0.28812 4.715 0.483867 4.15524 0.767589C3.59548 1.05351 3.08641 1.42521 2.64125 1.86729C2.19609 2.30937 1.82366 2.81962 1.53937 3.38047C1.25508 3.93912 1.05895 4.53735 0.955374 5.15538C0.851797 5.77341 0.794497 6.39584 0.787886 7.02267C0.77907 7.30859 0.776868 7.59451 0.772461 7.88264V29.4433C0.776868 29.7336 0.77907 30.013 0.787886 30.3033C0.794497 30.9279 0.851797 31.5525 0.955374 32.1706C1.05895 32.7886 1.25508 33.389 1.53937 33.9477C1.82366 34.5041 2.19389 35.0144 2.64125 35.4521C3.08421 35.8963 3.59328 36.268 4.15304 36.5518C4.71279 36.8355 5.31222 37.0334 5.92927 37.1412C6.54853 37.2424 7.1744 37.2974 7.80247 37.3061C8.09117 37.3127 8.37545 37.3149 8.66194 37.3149C9.00353 37.3172 9.34291 37.3172 9.68449 37.3172H118.092C118.427 37.3172 118.769 37.3172 119.106 37.3149C119.39 37.3149 119.683 37.3106 119.968 37.304C120.593 37.2974 121.219 37.2424 121.836 37.139C122.458 37.0334 123.057 36.8333 123.619 36.5496C124.179 36.2658 124.69 35.8941 125.131 35.4499C125.576 35.01 125.949 34.4997 126.235 33.9455C126.517 33.3868 126.713 32.7864 126.815 32.1684C126.918 31.5503 126.976 30.9279 126.989 30.3011C126.993 30.0108 126.993 29.7314 126.993 29.4411C127 29.1024 127 28.7659 127 28.4206V8.89876C127 8.55785 127 8.21914 126.993 7.88043C126.993 7.59451 126.993 7.30859 126.989 7.02047C126.978 6.39584 126.92 5.77121 126.815 5.15318C126.713 4.53515 126.517 3.93692 126.235 3.37827C125.658 2.25658 124.743 1.34163 123.619 0.765389C123.057 0.481667 122.456 0.285921 121.836 0.18035C121.217 0.0769788 120.593 0.0219939 119.968 0.0153957C119.683 0.0109969 119.39 0.00439758 119.106 0.00219819C118.771 -1.20812e-06 118.429 0 118.092 0H103.715V0.00439805Z" fill="#CCCED3"/>
<path id="Vector_2" d="M8.66809 36.5011C8.3838 36.5011 8.10613 36.4967 7.82405 36.4923C7.23784 36.4835 6.65384 36.4329 6.07646 36.3406C5.53654 36.2482 5.01645 36.0744 4.52721 35.8281C4.04459 35.584 3.60383 35.265 3.22258 34.8801C2.83472 34.4997 2.51297 34.0598 2.26835 33.5781C2.02153 33.092 1.84964 32.5708 1.76148 32.0319C1.66672 31.4535 1.61383 30.8685 1.60722 30.2834C1.60061 30.0877 1.5918 29.4322 1.5918 29.4322V7.88477C1.5918 7.88477 1.60061 7.23814 1.60722 7.05119C1.61383 6.46616 1.66672 5.88112 1.76148 5.30488C1.84964 4.76602 2.02153 4.24257 2.27056 3.7543C2.51518 3.27044 2.83472 2.83056 3.22038 2.45006C3.60383 2.06517 4.04679 1.74405 4.52942 1.49552C5.01645 1.25139 5.53654 1.07984 6.07425 0.989662C6.65385 0.895088 7.24005 0.842301 7.82625 0.835703L8.67029 0.824707H119.103L119.956 0.837903C120.538 0.844501 121.12 0.895088 121.693 0.989662C122.235 1.08204 122.761 1.25359 123.255 1.50212C124.225 2.00138 125.014 2.79097 125.512 3.7587C125.754 4.24477 125.924 4.76162 126.012 5.29608C126.109 5.87892 126.164 6.46616 126.175 7.05559C126.177 7.31952 126.177 7.60324 126.177 7.88697C126.184 8.23667 126.184 8.56878 126.184 8.90529V28.4271C126.184 28.7658 126.184 29.0957 126.177 29.43C126.177 29.7336 126.177 30.0107 126.173 30.2966C126.162 30.8751 126.109 31.4535 126.014 32.0253C125.928 32.5664 125.756 33.092 125.51 33.5825C125.263 34.0598 124.943 34.4975 124.56 34.8758C124.178 35.2606 123.735 35.584 123.251 35.8303C122.759 36.0788 122.235 36.2526 121.693 36.3427C121.115 36.4351 120.531 36.4879 119.945 36.4945C119.672 36.5011 119.385 36.5055 119.105 36.5055L118.092 36.5077L8.66809 36.5011Z" fill="#FBFBFB"/>
<g id="Group_2">
<path id="Vector_3" d="M31.3274 18.5585C31.3494 16.9133 32.2133 15.3936 33.6171 14.5314C32.7268 13.2623 31.2899 12.486 29.7385 12.4376C28.1055 12.266 26.5254 13.4119 25.6924 13.4119C24.8439 13.4119 23.5635 12.453 22.1862 12.4816C20.3725 12.5409 18.7218 13.5461 17.8381 15.1274C15.9583 18.3759 17.3599 23.1486 19.1604 25.7747C20.0617 27.0614 21.1151 28.4954 22.4925 28.4448C23.8412 28.3898 24.3436 27.587 25.9722 27.587C27.5832 27.587 28.057 28.4448 29.463 28.4118C30.9087 28.3898 31.821 27.1207 32.6893 25.8231C33.3372 24.9059 33.8353 23.8942 34.1658 22.8231C32.4469 22.0995 31.3296 20.4192 31.3274 18.5585ZM28.674 10.711C29.463 9.76531 29.8509 8.55124 29.7583 7.32397C28.5528 7.44934 27.4399 8.02558 26.64 8.93393C25.851 9.83129 25.4499 11.0036 25.5293 12.1934C26.748 12.2066 27.9071 11.659 28.674 10.711Z" fill="#010202"/>
<g id="Group_3">
<path id="Vector_4" d="M47.5032 25.3216H43.0802L42.0158 28.4513H40.1426L44.3319 16.8671H46.2779L50.4694 28.4513H48.5632L47.5032 25.3216ZM43.5364 23.8766H47.0426L45.3126 18.796H45.2641C45.2663 18.796 43.5364 23.8766 43.5364 23.8766ZM59.5203 24.2285C59.5203 26.8524 58.1121 28.5393 55.9877 28.5393C54.8902 28.5965 53.8566 28.0225 53.3255 27.0613H53.2858V31.2446H51.5493V20.0057H53.2307V21.4111H53.2616C53.8147 20.4565 54.8505 19.8825 55.9568 19.9177C58.1055 19.9199 59.5203 21.6134 59.5203 24.2285ZM57.7352 24.2285C57.7352 22.5196 56.8493 21.3957 55.4984 21.3957C54.1717 21.3957 53.2792 22.5438 53.2792 24.2307C53.2792 25.933 54.1717 27.0723 55.4984 27.0723C56.8493 27.0723 57.7352 25.955 57.7352 24.2285ZM68.8334 24.2285C68.8334 26.8524 67.4252 28.5393 65.3008 28.5393C64.2033 28.5965 63.1697 28.0225 62.6386 27.0613H62.5989V31.2446H60.8624V20.0057H62.5439V21.4111H62.5747C63.1301 20.4565 64.1636 19.8825 65.2699 19.9177C67.4186 19.9199 68.8334 21.6134 68.8334 24.2285ZM67.0484 24.2285C67.0484 22.5196 66.1624 21.3957 64.8115 21.3957C63.4849 21.3957 62.5923 22.5438 62.5923 24.2307C62.5923 25.933 63.4849 27.0723 64.8115 27.0723C66.1624 27.0723 67.0484 25.955 67.0484 24.2285ZM74.9885 25.2248C75.1185 26.3729 76.2358 27.1273 77.7631 27.1273C79.2264 27.1273 80.2798 26.3729 80.2798 25.337C80.2798 24.4374 79.6451 23.9008 78.1399 23.5313L76.6347 23.1706C74.5037 22.6559 73.5142 21.6618 73.5142 20.0475C73.5142 18.0482 75.2596 16.6758 77.7366 16.6758C80.1894 16.6758 81.8709 18.0482 81.9282 20.0475H80.174C80.0682 18.8906 79.1118 18.1934 77.7124 18.1934C76.313 18.1934 75.3565 18.8994 75.3565 19.9265C75.3565 20.7469 75.9692 21.2263 77.4655 21.5958L78.7437 21.9103C81.126 22.4712 82.1133 23.4279 82.1133 25.1215C82.1133 27.2879 80.3833 28.6471 77.633 28.6471C75.059 28.6471 73.3203 27.3209 73.2079 25.227C73.2101 25.2248 74.9885 25.2248 74.9885 25.2248ZM85.8663 18.0086V20.0079H87.475V21.3803H85.8663V26.0364C85.8663 26.76 86.188 27.0965 86.8955 27.0965C87.0872 27.0921 87.2767 27.0789 87.4662 27.0569V28.4206C87.1467 28.4799 86.8249 28.5063 86.501 28.5019C84.7887 28.5019 84.1187 27.8597 84.1187 26.2234V21.3825H82.8868V20.0101H84.1187V18.0086H85.8663ZM88.405 24.2285C88.405 21.5716 89.9741 19.9023 92.4181 19.9023C94.8709 19.9023 96.4334 21.5716 96.4334 24.2285C96.4334 26.8942 94.8797 28.5547 92.4181 28.5547C89.9587 28.5569 88.405 26.8942 88.405 24.2285ZM94.6637 24.2285C94.6637 22.4052 93.8263 21.3297 92.4181 21.3297C91.0121 21.3297 90.1747 22.414 90.1747 24.2285C90.1747 26.0584 91.0121 27.1251 92.4181 27.1251C93.8263 27.1273 94.6637 26.0606 94.6637 24.2285ZM97.8658 20.0057H99.523V21.4419H99.5627C99.7941 20.5159 100.643 19.8803 101.597 19.9155C101.797 19.9155 101.998 19.9375 102.192 19.9793V21.6002C101.938 21.5232 101.676 21.4881 101.412 21.4947C100.9 21.4749 100.407 21.6772 100.059 22.0511C99.7104 22.425 99.5429 22.9309 99.6024 23.4389V28.4469H97.8636V20.0057H97.8658ZM110.202 25.9704C109.969 27.5034 108.473 28.5547 106.56 28.5547C104.098 28.5547 102.571 26.9096 102.571 24.2681C102.571 21.62 104.107 19.9001 106.487 19.9001C108.827 19.9001 110.299 21.5057 110.299 24.0657V24.6596H104.323V24.7652C104.268 25.3942 104.484 26.0166 104.92 26.4741C105.356 26.9316 105.967 27.1801 106.599 27.1581C107.443 27.2373 108.237 26.7534 108.554 25.9704H110.202ZM104.329 23.4499H108.561C108.592 22.8847 108.387 22.3326 107.992 21.9257C107.598 21.5188 107.051 21.2945 106.485 21.3055C105.914 21.3011 105.365 21.5254 104.96 21.9301C104.556 22.3326 104.327 22.8803 104.329 23.4499Z" fill="#010202"/>
</g>
</g>
<g id="Group_4">
<path id="Vector_5" d="M43.3209 8.1487C44.0591 8.09592 44.7798 8.37524 45.2888 8.91189C45.7979 9.44635 46.0381 10.1809 45.9456 10.9133C45.9456 12.6927 44.9825 13.7132 43.3209 13.7132H41.3066V8.14651H43.3209V8.1487ZM42.1727 12.928H43.2239C43.7506 12.9588 44.2641 12.752 44.6211 12.3649C44.9781 11.9779 45.1412 11.4478 45.0641 10.9265C45.1346 10.4075 44.9715 9.88403 44.6145 9.49913C44.2575 9.11424 43.7484 8.9075 43.2239 8.93609H42.1727V12.928ZM46.9218 11.6128C46.8491 10.8584 47.2105 10.1304 47.854 9.73227C48.4975 9.33198 49.3129 9.33198 49.9564 9.73227C50.5999 10.1304 50.9613 10.8584 50.8886 11.6128C50.9613 12.3671 50.6021 13.0951 49.9564 13.4954C49.3129 13.8957 48.4975 13.8957 47.8518 13.4954C47.2105 13.0973 46.8491 12.3671 46.9218 11.6128ZM50.038 11.6128C50.038 10.7022 49.6281 10.1699 48.9096 10.1699C48.1868 10.1699 47.7813 10.7022 47.7813 11.6128C47.7813 12.5321 48.1868 13.06 48.9096 13.06C49.6281 13.06 50.038 12.5277 50.038 11.6128ZM56.1688 13.7154H55.3072L54.4367 10.623H54.3706L53.5045 13.7154H52.6516L51.4902 9.51453H52.3321L53.0858 12.719H53.1475L54.0113 9.51453H54.8091L55.673 12.719H55.7391L56.4884 9.51453H57.3192L56.1688 13.7154ZM58.2999 9.51453H59.0998V10.1809H59.1615C59.3775 9.69048 59.8822 9.38916 60.4177 9.43315C60.832 9.40236 61.2397 9.56072 61.5218 9.86423C61.8061 10.1677 61.9361 10.5834 61.8744 10.9947V13.7132H61.0436V11.2015C61.0436 10.5263 60.7505 10.1919 60.1356 10.1919C59.8535 10.1787 59.5803 10.2887 59.3885 10.4933C59.1946 10.6978 59.102 10.9771 59.1307 11.2565V13.7132H58.2999V9.51453ZM63.1988 7.87378H64.0297V13.7132H63.1988V7.87378ZM65.1822 11.6128C65.1095 10.8584 65.4709 10.1304 66.1166 9.73227C66.7601 9.33198 67.5755 9.33198 68.219 9.73227C68.8625 10.1304 69.2261 10.8584 69.1534 11.6128C69.2261 12.3671 68.8669 13.0951 68.2212 13.4954C67.5755 13.8957 66.7601 13.8957 66.1166 13.4954C65.4709 13.0973 65.1095 12.3671 65.1822 11.6128ZM68.2984 11.6128C68.2984 10.7022 67.8885 10.1699 67.17 10.1699C66.4472 10.1699 66.0417 10.7022 66.0417 11.6128C66.0417 12.5321 66.4472 13.06 67.17 13.06C67.8885 13.06 68.2984 12.5277 68.2984 11.6128ZM70.0283 12.5277C70.0283 11.7711 70.5925 11.3356 71.593 11.274L72.7323 11.2081V10.8452C72.7323 10.4009 72.4392 10.1524 71.8707 10.1524C71.4079 10.1524 71.0861 10.3217 70.9936 10.6186H70.1892C70.2729 9.89722 70.9539 9.43535 71.9081 9.43535C72.9637 9.43535 73.5587 9.95881 73.5587 10.8474V13.7176H72.7588V13.1259H72.6927C72.4216 13.557 71.9368 13.8099 71.4277 13.7858C71.0707 13.8231 70.7137 13.7066 70.447 13.4668C70.1826 13.2271 70.0283 12.8862 70.0283 12.5277ZM72.7323 12.1692V11.8173L71.7032 11.8833C71.1236 11.9229 70.8613 12.1186 70.8613 12.4903C70.8613 12.8686 71.1897 13.0885 71.6415 13.0885C71.9081 13.1149 72.177 13.0336 72.3819 12.8598C72.5891 12.6839 72.7147 12.4353 72.7323 12.1692ZM74.6518 11.6128C74.6518 10.2843 75.335 9.44415 76.3994 9.44415C76.9349 9.41995 77.4396 9.70588 77.6908 10.1809H77.7525V7.87378H78.5833V13.7154H77.7878V13.0512H77.7217C77.4528 13.5218 76.9415 13.8055 76.3994 13.7836C75.3284 13.7836 74.6518 12.9434 74.6518 11.6128ZM75.5091 11.6128C75.5091 12.5035 75.93 13.0402 76.633 13.0402C77.3338 13.0402 77.7657 12.4969 77.7657 11.6172C77.7657 10.7418 77.3272 10.1897 76.633 10.1897C75.9366 10.1897 75.5091 10.7286 75.5091 11.6128ZM82.019 11.6128C81.9463 10.8584 82.3077 10.1304 82.9512 9.73227C83.5947 9.33198 84.4101 9.33198 85.0536 9.73227C85.6971 10.1304 86.0585 10.8584 85.9858 11.6128C86.0585 12.3671 85.6993 13.0951 85.0536 13.4954C84.4101 13.8957 83.5947 13.8957 82.949 13.4954C82.3055 13.0973 81.9441 12.3671 82.019 11.6128ZM85.1351 11.6128C85.1351 10.7022 84.7252 10.1699 84.0068 10.1699C83.284 10.1699 82.8785 10.7022 82.8785 11.6128C82.8785 12.5321 83.284 13.06 84.0068 13.06C84.7252 13.06 85.1351 12.5277 85.1351 11.6128ZM87.1031 9.51453H87.903V10.1809H87.9648C88.1807 9.69048 88.6854 9.38916 89.2209 9.43315C89.6352 9.40236 90.0429 9.56072 90.325 9.86423C90.6093 10.1677 90.7371 10.5834 90.6776 10.9947V13.7132H89.8468V11.2015C89.8468 10.5263 89.5537 10.1919 88.9388 10.1919C88.6567 10.1787 88.3857 10.2887 88.1917 10.4933C88 10.6978 87.9053 10.9771 87.9361 11.2565V13.7132H87.1053V9.51453H87.1031ZM95.3716 8.46982V9.53432H96.284V10.2315H95.3716V12.3913C95.3716 12.8312 95.5523 13.0248 95.9666 13.0248C96.0724 13.0248 96.1782 13.0182 96.284 13.005V13.6956C96.1341 13.722 95.9843 13.7374 95.8322 13.7396C94.9088 13.7396 94.5408 13.4141 94.5408 12.6047V10.2315H93.8708V9.53432H94.5386V8.46982H95.3716ZM97.4167 7.87378H98.2409V10.1875H98.307C98.5318 9.69268 99.0453 9.39136 99.5896 9.43535C100.002 9.41336 100.403 9.57611 100.685 9.87743C100.965 10.1809 101.095 10.5922 101.04 11.0013V13.7132H100.209V11.2037C100.209 10.5328 99.8959 10.1919 99.3097 10.1919C99.021 10.1678 98.7368 10.2733 98.5318 10.4801C98.3269 10.6846 98.2255 10.9705 98.2497 11.2586V13.7132H97.4189V7.87378H97.4167ZM105.881 12.5805C105.648 13.3723 104.881 13.8847 104.057 13.7946C103.497 13.8099 102.957 13.5768 102.582 13.1589C102.208 12.741 102.036 12.1802 102.113 11.6259C102.038 11.0695 102.21 10.5065 102.582 10.0864C102.955 9.66409 103.49 9.42655 104.054 9.43095C105.225 9.43095 105.932 10.2293 105.932 11.549V11.8371H102.961V11.8833C102.935 12.1956 103.043 12.5035 103.254 12.7322C103.468 12.961 103.768 13.0907 104.081 13.0863C104.489 13.1347 104.883 12.9346 105.084 12.5761L105.881 12.5805ZM102.961 11.2279H105.088C105.108 10.9419 105.009 10.6626 104.81 10.4559C104.614 10.2469 104.337 10.1348 104.05 10.1392C103.759 10.1348 103.479 10.2491 103.274 10.4559C103.069 10.6582 102.957 10.9375 102.961 11.2279Z" fill="#010202"/>
</g>
</g>
</g>
</svg>
