<svg width="127" height="38" viewBox="0 0 127 38" fill="none" xmlns="http://www.w3.org/2000/svg">
<g id="Group 91">
<path id="Vector" fill-rule="evenodd" clip-rule="evenodd" d="M122.279 37.6299H5.44665C2.87705 37.6299 0.772461 35.5317 0.772461 32.965V4.98206C0.772461 2.41756 2.87485 0.317139 5.44665 0.317139H122.279C124.849 0.317139 126.953 2.41536 126.953 4.98206V32.9672C126.953 35.5317 124.851 37.6299 122.279 37.6299Z" fill="#FBFBFB"/>
<g id="Group">
<path id="Vector_2" d="M53.4354 29.0411C55.6395 29.0411 57.4264 27.2647 57.4264 25.0734C57.4264 22.8821 55.6395 21.1057 53.4354 21.1057C51.2312 21.1057 49.4443 22.8821 49.4443 25.0734C49.4443 27.2647 51.2312 29.0411 53.4354 29.0411Z" fill="black"/>
<path id="Vector_3" d="M62.1404 29.0411C64.3446 29.0411 66.1315 27.2647 66.1315 25.0734C66.1315 22.8821 64.3446 21.1057 62.1404 21.1057C59.9363 21.1057 58.1494 22.8821 58.1494 25.0734C58.1494 27.2647 59.9363 29.0411 62.1404 29.0411Z" fill="black"/>
</g>
<path id="Vector_4" fill-rule="evenodd" clip-rule="evenodd" d="M122.279 0.319336H5.44665C2.87705 0.319336 0.772461 2.41756 0.772461 4.98425V32.9694C0.772461 35.5339 2.87485 37.6343 5.44665 37.6343H122.279C124.849 37.6343 126.953 35.5361 126.953 32.9694V4.98205C126.953 2.41756 124.851 0.319336 122.279 0.319336ZM122.279 1.06493C124.443 1.06493 126.204 2.82224 126.204 4.98205V32.9672C126.204 35.127 124.443 36.8843 122.279 36.8843H5.44665C3.28255 36.8843 1.52174 35.127 1.52174 32.9672V4.98205C1.52174 2.82224 3.28255 1.06493 5.44665 1.06493H122.279Z" fill="#CCCED3"/>
<path id="Vector_5" fill-rule="evenodd" clip-rule="evenodd" d="M45.0941 9.87341C45.0941 10.6564 44.8627 11.2766 44.3977 11.7429C43.8688 12.2949 43.1835 12.5699 42.3372 12.5699C41.5284 12.5699 40.8386 12.2905 40.2745 11.7297C39.7059 11.1711 39.4238 10.4738 39.4238 9.64688C39.4238 8.8177 39.7059 8.12269 40.2745 7.56405C40.8386 7.0054 41.5284 6.72388 42.3372 6.72388C42.7383 6.72388 43.124 6.80305 43.4876 6.95701C43.8534 7.11317 44.1465 7.32211 44.3647 7.58164L43.871 8.0743C43.5008 7.63222 42.9895 7.41009 42.335 7.41009C41.7444 7.41009 41.2353 7.61683 40.8034 8.03251C40.3714 8.4482 40.1577 8.98486 40.1577 9.64688C40.1577 10.3089 40.3737 10.8455 40.8034 11.2612C41.2331 11.6769 41.7444 11.8815 42.335 11.8815C42.9609 11.8815 43.4832 11.6725 43.9019 11.2568C44.1729 10.9841 44.3294 10.608 44.3713 10.1241H42.335V9.45113H45.0522C45.0809 9.59629 45.0941 9.73705 45.0941 9.87341Z" fill="#010202"/>
<path id="Vector_6" d="M45.0941 9.87341C45.0941 10.6564 44.8627 11.2766 44.3977 11.7429C43.8688 12.2949 43.1835 12.5699 42.3372 12.5699C41.5284 12.5699 40.8386 12.2905 40.2745 11.7297C39.7059 11.1711 39.4238 10.4738 39.4238 9.64688C39.4238 8.8177 39.7059 8.12269 40.2745 7.56405C40.8386 7.0054 41.5284 6.72388 42.3372 6.72388C42.7383 6.72388 43.124 6.80305 43.4876 6.95701C43.8534 7.11317 44.1465 7.32211 44.3647 7.58164L43.871 8.0743C43.5008 7.63222 42.9895 7.41009 42.335 7.41009C41.7444 7.41009 41.2353 7.61683 40.8034 8.03251C40.3714 8.4482 40.1577 8.98486 40.1577 9.64688C40.1577 10.3089 40.3737 10.8455 40.8034 11.2612C41.2331 11.6769 41.7444 11.8815 42.335 11.8815C42.9609 11.8815 43.4832 11.6725 43.9019 11.2568C44.1729 10.9841 44.3294 10.608 44.3713 10.1241H42.335V9.45113H45.0522C45.0809 9.59629 45.0941 9.73705 45.0941 9.87341Z" stroke="#010202" stroke-width="0.2"/>
<path id="Vector_7" fill-rule="evenodd" clip-rule="evenodd" d="M49.4027 7.53533H46.8486V9.31024H49.1493V9.98326H46.8486V11.7582H49.4027V12.4466H46.1279V6.84912H49.4027V7.53533Z" fill="#010202"/>
<path id="Vector_8" d="M49.4027 7.53533H46.8486V9.31024H49.1493V9.98326H46.8486V11.7582H49.4027V12.4466H46.1279V6.84912H49.4027V7.53533Z" stroke="#010202" stroke-width="0.2"/>
<path id="Vector_9" fill-rule="evenodd" clip-rule="evenodd" d="M52.4398 12.4446H51.7192V7.53558H50.1523V6.84717H54.0067V7.53558H52.4398V12.4446Z" fill="#010202"/>
<path id="Vector_10" d="M52.4398 12.4446H51.7192V7.53558H50.1523V6.84717H54.0067V7.53558H52.4398V12.4446Z" stroke="#010202" stroke-width="0.2"/>
<path id="Vector_11" fill-rule="evenodd" clip-rule="evenodd" d="M56.7939 12.4446H57.5146V6.84717H56.7939V12.4446Z" fill="#010202"/>
<path id="Vector_12" d="M56.7939 12.4446H57.5146V6.84717H56.7939V12.4446Z" stroke="#010202" stroke-width="0.2"/>
<path id="Vector_13" fill-rule="evenodd" clip-rule="evenodd" d="M60.7123 12.4446H59.9917V7.53558H58.4248V6.84717H62.2792V7.53558H60.7123V12.4446Z" fill="#010202"/>
<path id="Vector_14" d="M60.7123 12.4446H59.9917V7.53558H58.4248V6.84717H62.2792V7.53558H60.7123V12.4446Z" stroke="#010202" stroke-width="0.2"/>
<path id="Vector_15" fill-rule="evenodd" clip-rule="evenodd" d="M65.9923 11.2524C66.4066 11.6725 66.9157 11.8815 67.5173 11.8815C68.1167 11.8815 68.6236 11.6725 69.0401 11.2524C69.4544 10.8324 69.6638 10.2979 69.6638 9.64688C69.6638 8.99586 69.4544 8.4592 69.0401 8.04132C68.6258 7.62123 68.1167 7.41229 67.5173 7.41229C66.9157 7.41229 66.4088 7.62343 65.9945 8.04132C65.5802 8.4592 65.3708 8.99586 65.3708 9.64688C65.3708 10.2979 65.578 10.8324 65.9923 11.2524ZM69.5734 11.7209C69.0203 12.2884 68.3371 12.5699 67.5173 12.5699C66.6975 12.5699 66.0121 12.2884 65.4612 11.7209C64.9102 11.1557 64.6348 10.4651 64.6348 9.64688C64.6348 8.82871 64.9102 8.13589 65.4612 7.57065C66.0121 7.00541 66.6953 6.72168 67.5151 6.72168C68.3305 6.72168 69.0136 7.0054 69.5668 7.57284C70.1199 8.14029 70.3954 8.8309 70.3954 9.64468C70.3998 10.4651 70.1243 11.1557 69.5734 11.7209Z" fill="#010202"/>
<path id="Vector_16" d="M65.9923 11.2524C66.4066 11.6725 66.9157 11.8815 67.5173 11.8815C68.1167 11.8815 68.6236 11.6725 69.0401 11.2524C69.4544 10.8324 69.6638 10.2979 69.6638 9.64688C69.6638 8.99586 69.4544 8.4592 69.0401 8.04132C68.6258 7.62123 68.1167 7.41229 67.5173 7.41229C66.9157 7.41229 66.4088 7.62343 65.9945 8.04132C65.5802 8.4592 65.3708 8.99586 65.3708 9.64688C65.3708 10.2979 65.578 10.8324 65.9923 11.2524ZM69.5734 11.7209C69.0203 12.2884 68.3371 12.5699 67.5173 12.5699C66.6975 12.5699 66.0121 12.2884 65.4612 11.7209C64.9102 11.1557 64.6348 10.4651 64.6348 9.64688C64.6348 8.82871 64.9102 8.13589 65.4612 7.57065C66.0121 7.00541 66.6953 6.72168 67.5151 6.72168C68.3305 6.72168 69.0136 7.0054 69.5668 7.57284C70.1199 8.14029 70.3954 8.8309 70.3954 9.64468C70.3998 10.4651 70.1243 11.1557 69.5734 11.7209Z" stroke="#010202" stroke-width="0.2"/>
<path id="Vector_17" fill-rule="evenodd" clip-rule="evenodd" d="M71.4121 12.4446V6.84717H72.2892L75.0153 11.1998H75.0461L75.0153 10.1221V6.84717H75.7381V12.4446H74.9844L72.1327 7.87869H72.1019L72.1327 8.95859V12.4446H71.4121Z" fill="#010202"/>
<path id="Vector_18" d="M71.4121 12.4446V6.84717H72.2892L75.0153 11.1998H75.0461L75.0153 10.1221V6.84717H75.7381V12.4446H74.9844L72.1327 7.87869H72.1019L72.1327 8.95859V12.4446H71.4121Z" stroke="#010202" stroke-width="0.2"/>
<path id="Vector_19" d="M100.151 17.1401H98.4082V28.8013H100.151V17.1401Z" fill="black"/>
<path id="Vector_20" fill-rule="evenodd" clip-rule="evenodd" d="M114.117 21.3411L112.118 26.3975H112.056L109.982 21.3411H108.103L111.214 28.4055L109.44 32.338H111.258L116.054 21.3411H114.117Z" fill="black"/>
<path id="Vector_21" fill-rule="evenodd" clip-rule="evenodd" d="M104.435 21.0859C103.172 21.0859 101.865 21.6402 101.323 22.8718L102.87 23.5163C103.201 22.8719 103.818 22.6607 104.463 22.6607C105.365 22.6607 106.281 23.2018 106.297 24.1607V24.2817C105.979 24.1013 105.305 23.833 104.479 23.833C102.808 23.833 101.111 24.7479 101.111 26.4569C101.111 28.0184 102.48 29.0236 104.014 29.0236C105.184 29.0236 105.832 28.4979 106.237 27.8821H106.297V28.7816H107.98V24.3103C107.983 22.2406 106.433 21.0859 104.435 21.0859Z" fill="black"/>
<path id="Vector_22" fill-rule="evenodd" clip-rule="evenodd" d="M93.6129 17.1401H89.4346V28.8013H91.1778V24.3828H93.6129C95.5456 24.3828 97.4453 22.9861 97.4453 20.7603C97.4453 18.5368 95.5456 17.1401 93.6129 17.1401Z" fill="black"/>
<path id="Vector_23" fill-rule="evenodd" clip-rule="evenodd" d="M72.8245 21.9921H72.765C72.3727 21.5258 71.619 21.1035 70.6736 21.1035C68.6858 21.1035 66.8633 22.8476 66.8633 25.0866C66.8633 27.3102 68.6858 29.0389 70.6736 29.0389C71.6212 29.0389 72.3749 28.6188 72.765 28.1394H72.8245V28.709C72.8245 30.2266 72.0113 31.0382 70.7022 31.0382C69.6334 31.0382 68.9701 30.2728 68.699 29.6262L67.1784 30.2574C67.6148 31.3087 68.7739 32.602 70.7022 32.602C72.7517 32.602 74.4817 31.3989 74.4817 28.4693V21.3454H72.8245V21.9921Z" fill="black"/>
<path id="Vector_24" fill-rule="evenodd" clip-rule="evenodd" d="M75.6875 28.8013H77.4351V17.1401H75.6875V28.8013Z" fill="black"/>
<path id="Vector_25" fill-rule="evenodd" clip-rule="evenodd" d="M85.4305 23.6306C85.1 22.7443 84.0906 21.1057 82.0279 21.1057C79.9806 21.1057 78.2793 22.7157 78.2793 25.0734C78.2793 27.297 79.9652 29.0411 82.224 29.0411C84.0466 29.0411 85.1 27.9282 85.5385 27.2816L84.1832 26.3799C83.7292 27.0419 83.1144 27.4774 82.224 27.4774C81.3359 27.4774 80.7034 27.0705 80.2979 26.2743L85.6134 24.0793L85.4305 23.6306Z" fill="black"/>
<path id="Vector_26" fill-rule="evenodd" clip-rule="evenodd" d="M43.0824 22.3243V24.0068H47.1197C46.9985 24.9548 46.6812 25.6454 46.2008 26.1248C45.6124 26.7121 44.6934 27.3565 43.0824 27.3565C40.5966 27.3565 38.6551 25.3572 38.6551 22.8785C38.6551 20.3998 40.5988 18.4006 43.0824 18.4006C44.4223 18.4006 45.4008 18.9262 46.1236 19.6014L47.3137 18.4138C46.3043 17.4526 44.9644 16.7158 43.0824 16.7158C39.6798 16.7158 36.8193 19.4827 36.8193 22.8785C36.8193 26.2744 39.6798 29.039 43.0824 29.039C44.9204 29.039 46.3043 28.4386 47.3886 27.3103C48.5015 26.1974 48.8497 24.6358 48.8497 23.3734C48.8497 22.9841 48.821 22.6234 48.7593 22.3221L43.0824 22.3243Z" fill="black"/>
<g id="Group_2">
<path id="Vector_27" fill-rule="evenodd" clip-rule="evenodd" d="M21.6216 18.9726L10.3009 7.69629C10.1709 7.95802 10.0938 8.27913 10.0938 8.66842V29.2812C10.0938 29.6749 10.1731 30.0026 10.3075 30.2643L21.6216 18.9726Z" fill="black"/>
<path id="Vector_28" fill-rule="evenodd" clip-rule="evenodd" d="M10.334 7.62357C10.3384 7.61257 10.345 7.60377 10.3516 7.59277C10.345 7.60377 10.3406 7.61477 10.334 7.62357Z" fill="black"/>
<path id="Vector_29" fill-rule="evenodd" clip-rule="evenodd" d="M22.2765 18.3193L25.7629 14.8399L12.4697 7.30255C12.0929 7.08701 11.7381 6.98584 11.4207 6.98584C11.2599 6.98584 11.1122 7.01443 10.9756 7.06501L22.2765 18.3193Z" fill="black"/>
<path id="Vector_30" fill-rule="evenodd" clip-rule="evenodd" d="M30.6793 17.6287L26.6046 15.3171L22.9375 18.9769L26.6046 22.6279L30.6793 20.3164C31.984 19.5796 31.984 18.3677 30.6793 17.6287Z" fill="black"/>
<path id="Vector_31" fill-rule="evenodd" clip-rule="evenodd" d="M22.2855 19.6323L11.0088 30.891C11.4121 31.0274 11.9167 30.9614 12.4699 30.6491L25.7718 23.103L22.2855 19.6323Z" fill="black"/>
<path id="Vector_32" fill-rule="evenodd" clip-rule="evenodd" d="M10.3232 30.2996C10.3761 30.3963 10.4356 30.4843 10.504 30.5591C10.4356 30.4799 10.3717 30.3963 10.3232 30.2996Z" fill="black"/>
</g>
<g id="Group_3">
<path id="Vector_33" d="M53.4358 22.6694C52.2326 22.6694 51.1924 23.646 51.1924 25.0734C51.1924 26.4854 52.2304 27.4795 53.4358 27.4795C54.6413 27.4795 55.6792 26.4876 55.6792 25.0734C55.6792 23.646 54.6413 22.6694 53.4358 22.6694Z" fill="white"/>
<path id="Vector_34" d="M64.3843 25.0734C64.3843 23.646 63.3464 22.6694 62.1409 22.6694C60.9376 22.6694 59.8975 23.646 59.8975 25.0734C59.8975 26.4854 60.9354 27.4795 62.1409 27.4795C63.3464 27.4795 64.3843 26.4854 64.3843 25.0734Z" fill="white"/>
</g>
<path id="Vector_35" fill-rule="evenodd" clip-rule="evenodd" d="M70.8239 27.4798C69.6207 27.4798 68.6113 26.4724 68.6113 25.0912C68.6113 23.6924 69.6207 22.6719 70.8261 22.6719C72.0139 22.6719 72.9483 23.6946 72.9483 25.0912C72.9461 26.4724 72.0117 27.4776 70.8239 27.4798Z" fill="#FBFBFB"/>
<path id="Vector_36" fill-rule="evenodd" clip-rule="evenodd" d="M93.6572 22.7597H91.1758V18.7634H93.6572C94.9619 18.7634 95.7023 19.8411 95.7023 20.7605C95.7001 21.6644 94.9596 22.7597 93.6572 22.7597Z" fill="white"/>
<path id="Vector_37" fill-rule="evenodd" clip-rule="evenodd" d="M80.009 24.9549C79.9649 23.4219 81.199 22.6411 82.0893 22.6411C82.7813 22.6411 83.3697 22.9886 83.5636 23.4835L80.009 24.9549Z" fill="white"/>
<path id="Vector_38" fill-rule="evenodd" clip-rule="evenodd" d="M104.224 27.4773C103.653 27.4773 102.855 27.1913 102.855 26.4875C102.855 25.588 103.847 25.2427 104.704 25.2427C105.469 25.2427 105.833 25.4076 106.298 25.632C106.163 26.7119 105.231 27.4773 104.224 27.4773Z" fill="#FBFBFB"/>
</g>
</svg>
